<?xml version="1.0" encoding="UTF-8"?>
<svg id="_레이어_1" data-name="레이어_1" xmlns="http://www.w3.org/2000/svg" version="1.1" viewBox="0 0 32 32">
  <!-- Generator: Adobe Illustrator 29.5.1, SVG Export Plug-In . SVG Version: 2.1.0 Build 141)  -->
  <defs>
    <style>
      .st0 {
        fill: #c9a89f;
      }
    </style>
  </defs>
  <path class="st0" d="M15.6,12.4c0-4-2.8-6.3-7.5-6.3h-2.6c-.4,0-1.6,0-2.5.1C.7,6.6,0,8.3,0,9.9v14.3c0,1.2,1.1,1.9,2.3,1.9s2.4-.6,2.4-1.9v-5.3h2.5l4.2,6.3c.3.5,1,.9,1.8.9s.8-.1,1.2-.4c1.2-.8,1.4-1.9.8-2.8l-3.4-4.8c2.6-1,3.7-3,3.7-5.8ZM8.1,14.8h-3.4v-3.8c0-.8.4-1,1.2-1h2.1c1.9,0,3,.5,3,2.4s-.8,2.4-2.9,2.4Z"/>
  <path class="st0" d="M30.1,21.7h-6.2c-.7,0-1.1-.5-1.1-1.3V7.9c0-1.2-.6-2-2.3-2s-2.3.8-2.3,2v14.2c0,3,1.4,3.8,3.8,3.9h8.1c.9,0,1.8-.7,1.8-2.1s-.8-2.1-1.8-2.1Z"/>
</svg>